<?xml version="1.0" encoding="UTF-8"?>
<svg width="100" height="100" viewBox="0 0 100 100" fill="none" xmlns="http://www.w3.org/2000/svg">
  <g opacity="0.5">
    <path d="M0 0H1V100H0V0Z" fill="currentColor" />
    <path d="M20 0H21V100H20V0Z" fill="currentColor" />
    <path d="M40 0H41V100H40V0Z" fill="currentColor" />
    <path d="M60 0H61V100H60V0Z" fill="currentColor" />
    <path d="M80 0H81V100H80V0Z" fill="currentColor" />
    <path d="M0 0V1H100V0H0Z" fill="currentColor" />
    <path d="M0 20V21H100V20H0Z" fill="currentColor" />
    <path d="M0 40V41H100V40H0Z" fill="currentColor" />
    <path d="M0 60V61H100V60H0Z" fill="currentColor" />
    <path d="M0 80V81H100V80H0Z" fill="currentColor" />
  </g>
</svg>
